<mxfile host="Electron" modified="2024-08-19T13:50:29.492Z" agent="Mozilla/5.0 (Windows NT 10.0; Win64; x64) AppleWebKit/537.36 (KHTML, like Gecko) draw.io/22.1.18 Chrome/120.0.6099.199 Electron/28.1.2 Safari/537.36" etag="4IY0pN2oNXOsRzOleN6V" version="22.1.18" type="device">
  <diagram name="Page-1" id="YPIn2ZlSiRONyJe5EDEY">
    <mxGraphModel dx="680" dy="740" grid="1" gridSize="10" guides="1" tooltips="1" connect="1" arrows="1" fold="1" page="1" pageScale="1" pageWidth="850" pageHeight="1100" math="0" shadow="0">
      <root>
        <mxCell id="0" />
        <mxCell id="1" parent="0" />
        <mxCell id="lBCvLFiiWX32wyVc3Z1B-1" value="&lt;font style=&quot;font-size: 16px;&quot;&gt;S1 = t&lt;b&gt;&lt;font color=&quot;#cc0000&quot;&gt;a&lt;/font&gt;&lt;/b&gt;ble&lt;/font&gt;" style="text;html=1;strokeColor=none;fillColor=none;align=left;verticalAlign=middle;whiteSpace=wrap;rounded=0;" vertex="1" parent="1">
          <mxGeometry x="200" y="200" width="120" height="40" as="geometry" />
        </mxCell>
        <mxCell id="lBCvLFiiWX32wyVc3Z1B-2" value="&lt;font style=&quot;font-size: 16px;&quot;&gt;S2 = tg&lt;b&gt;&lt;font color=&quot;#cc0000&quot;&gt;a&lt;/font&gt;&lt;/b&gt;ble&lt;/font&gt;" style="text;html=1;strokeColor=none;fillColor=none;align=left;verticalAlign=middle;whiteSpace=wrap;rounded=0;" vertex="1" parent="1">
          <mxGeometry x="200" y="240" width="120" height="40" as="geometry" />
        </mxCell>
        <mxCell id="lBCvLFiiWX32wyVc3Z1B-3" value="&lt;font style=&quot;font-size: 16px;&quot;&gt;S1 = ta&lt;b&gt;&lt;font color=&quot;#cc0000&quot;&gt;b&lt;/font&gt;&lt;/b&gt;le&lt;/font&gt;" style="text;html=1;strokeColor=none;fillColor=none;align=left;verticalAlign=middle;whiteSpace=wrap;rounded=0;" vertex="1" parent="1">
          <mxGeometry x="200" y="320" width="120" height="40" as="geometry" />
        </mxCell>
        <mxCell id="lBCvLFiiWX32wyVc3Z1B-4" value="&lt;font style=&quot;font-size: 16px;&quot;&gt;S2 = t&lt;b&gt;&lt;font color=&quot;#cc0000&quot;&gt;b&lt;/font&gt;&lt;/b&gt;le&lt;/font&gt;" style="text;html=1;strokeColor=none;fillColor=none;align=left;verticalAlign=middle;whiteSpace=wrap;rounded=0;" vertex="1" parent="1">
          <mxGeometry x="200" y="360" width="120" height="40" as="geometry" />
        </mxCell>
        <mxCell id="lBCvLFiiWX32wyVc3Z1B-5" value="&lt;font style=&quot;font-size: 16px;&quot;&gt;S1 = ta&lt;b&gt;&lt;font color=&quot;#cc0000&quot;&gt;b&lt;/font&gt;&lt;/b&gt;le&lt;/font&gt;" style="text;html=1;strokeColor=none;fillColor=none;align=left;verticalAlign=middle;whiteSpace=wrap;rounded=0;" vertex="1" parent="1">
          <mxGeometry x="200" y="440" width="110" height="40" as="geometry" />
        </mxCell>
        <mxCell id="lBCvLFiiWX32wyVc3Z1B-6" value="&lt;font style=&quot;font-size: 16px;&quot;&gt;S2 = tc&lt;b&gt;&lt;font color=&quot;#cc0000&quot;&gt;b&lt;/font&gt;&lt;/b&gt;le&lt;/font&gt;" style="text;html=1;strokeColor=none;fillColor=none;align=left;verticalAlign=middle;whiteSpace=wrap;rounded=0;" vertex="1" parent="1">
          <mxGeometry x="200" y="480" width="120" height="40" as="geometry" />
        </mxCell>
        <mxCell id="lBCvLFiiWX32wyVc3Z1B-13" style="edgeStyle=orthogonalEdgeStyle;rounded=0;orthogonalLoop=1;jettySize=auto;html=1;exitX=1;exitY=0.5;exitDx=0;exitDy=0;entryX=0;entryY=0.5;entryDx=0;entryDy=0;" edge="1" parent="1" source="lBCvLFiiWX32wyVc3Z1B-7" target="lBCvLFiiWX32wyVc3Z1B-10">
          <mxGeometry relative="1" as="geometry" />
        </mxCell>
        <mxCell id="lBCvLFiiWX32wyVc3Z1B-7" value="&lt;font style=&quot;font-size: 16px;&quot;&gt;&lt;b&gt;Delete&lt;/b&gt;&lt;/font&gt;" style="text;html=1;strokeColor=none;fillColor=none;align=center;verticalAlign=middle;whiteSpace=wrap;rounded=0;" vertex="1" parent="1">
          <mxGeometry x="360" y="250" width="80" height="30" as="geometry" />
        </mxCell>
        <mxCell id="lBCvLFiiWX32wyVc3Z1B-15" style="edgeStyle=orthogonalEdgeStyle;rounded=0;orthogonalLoop=1;jettySize=auto;html=1;exitX=1;exitY=0.5;exitDx=0;exitDy=0;entryX=0;entryY=0.5;entryDx=0;entryDy=0;" edge="1" parent="1" source="lBCvLFiiWX32wyVc3Z1B-8" target="lBCvLFiiWX32wyVc3Z1B-12">
          <mxGeometry relative="1" as="geometry" />
        </mxCell>
        <mxCell id="lBCvLFiiWX32wyVc3Z1B-8" value="&lt;font style=&quot;font-size: 16px;&quot;&gt;&lt;b&gt;Replace&lt;/b&gt;&lt;/font&gt;" style="text;html=1;strokeColor=none;fillColor=none;align=center;verticalAlign=middle;whiteSpace=wrap;rounded=0;" vertex="1" parent="1">
          <mxGeometry x="360" y="485" width="80" height="30" as="geometry" />
        </mxCell>
        <mxCell id="lBCvLFiiWX32wyVc3Z1B-14" style="edgeStyle=orthogonalEdgeStyle;rounded=0;orthogonalLoop=1;jettySize=auto;html=1;exitX=1;exitY=0.5;exitDx=0;exitDy=0;entryX=0;entryY=0.5;entryDx=0;entryDy=0;" edge="1" parent="1" source="lBCvLFiiWX32wyVc3Z1B-9" target="lBCvLFiiWX32wyVc3Z1B-11">
          <mxGeometry relative="1" as="geometry" />
        </mxCell>
        <mxCell id="lBCvLFiiWX32wyVc3Z1B-9" value="&lt;font style=&quot;font-size: 16px;&quot;&gt;&lt;b&gt;Insert&lt;/b&gt;&lt;/font&gt;" style="text;html=1;strokeColor=none;fillColor=none;align=center;verticalAlign=middle;whiteSpace=wrap;rounded=0;" vertex="1" parent="1">
          <mxGeometry x="360" y="370" width="80" height="30" as="geometry" />
        </mxCell>
        <mxCell id="lBCvLFiiWX32wyVc3Z1B-10" value="&lt;span style=&quot;font-size: 16px;&quot;&gt;f (2, 3)&lt;/span&gt;" style="text;html=1;strokeColor=none;fillColor=none;align=center;verticalAlign=middle;whiteSpace=wrap;rounded=0;" vertex="1" parent="1">
          <mxGeometry x="520" y="250" width="60" height="30" as="geometry" />
        </mxCell>
        <mxCell id="lBCvLFiiWX32wyVc3Z1B-11" value="&lt;span style=&quot;font-size: 16px;&quot;&gt;f (3, 2)&lt;/span&gt;" style="text;html=1;strokeColor=none;fillColor=none;align=center;verticalAlign=middle;whiteSpace=wrap;rounded=0;" vertex="1" parent="1">
          <mxGeometry x="520" y="370" width="60" height="30" as="geometry" />
        </mxCell>
        <mxCell id="lBCvLFiiWX32wyVc3Z1B-12" value="&lt;span style=&quot;font-size: 16px;&quot;&gt;f (3, 3)&lt;/span&gt;" style="text;html=1;strokeColor=none;fillColor=none;align=center;verticalAlign=middle;whiteSpace=wrap;rounded=0;" vertex="1" parent="1">
          <mxGeometry x="520" y="485" width="60" height="30" as="geometry" />
        </mxCell>
      </root>
    </mxGraphModel>
  </diagram>
</mxfile>
